<svg width="84" height="84" viewBox="0 0 84 84" fill="none" xmlns="http://www.w3.org/2000/svg">
<rect x="1" y="1" width="82" height="82" rx="11" fill="white" fill-opacity="0.25"/>
<rect x="1" y="1" width="82" height="82" rx="11" stroke="black" stroke-width="2"/>
<path d="M41.9998 65.068C31.3538 65.068 22.7178 62.188 22.7178 58.64C22.7178 56.7 22.7178 54.578 22.7178 52.212C22.7178 51.654 22.9978 51.122 23.3998 50.606C25.5498 53.374 33.0258 55.426 42.0018 55.426C50.9778 55.426 58.4538 53.374 60.6038 50.606C61.0058 51.124 61.2838 51.654 61.2838 52.212C61.2838 54.074 61.2838 56.048 61.2838 58.64C61.2838 62.186 52.6458 65.068 41.9998 65.068ZM41.9998 52.212C31.3538 52.212 22.7178 49.33 22.7178 45.784C22.7178 43.844 22.7178 41.724 22.7178 39.356C22.7178 39.016 22.8458 38.684 23.0198 38.356C23.1178 38.15 23.2458 37.948 23.3998 37.748C25.5498 40.514 33.0258 42.568 42.0018 42.568C50.9778 42.568 58.4538 40.514 60.6038 37.748C60.7578 37.948 60.8858 38.15 60.9838 38.356C61.1558 38.684 61.2858 39.016 61.2858 39.356C61.2858 41.218 61.2858 43.19 61.2858 45.784C61.2858 49.33 52.6498 52.212 42.0038 52.212H41.9998ZM41.9998 39.358C31.3538 39.358 22.7178 36.478 22.7178 32.93C22.7178 31.914 22.7178 30.842 22.7178 29.716C22.7178 28.694 22.7178 27.634 22.7178 26.502C22.7178 22.954 31.3538 20.074 41.9998 20.074C52.6458 20.074 61.2818 22.954 61.2818 26.502C61.2818 27.504 61.2818 28.568 61.2818 29.716C61.2818 30.7 61.2818 31.738 61.2818 32.93C61.2818 36.478 52.6458 39.358 41.9998 39.358ZM41.9998 23.29C34.8998 23.29 29.1458 24.726 29.1458 26.504C29.1458 28.282 34.9018 29.718 41.9998 29.718C49.0998 29.718 54.8538 28.282 54.8538 26.504C54.8538 24.726 49.0978 23.29 41.9998 23.29Z" fill="#FF8C00"/>
</svg>
