<svg width="84" height="84" viewBox="0 0 84 84" fill="none" xmlns="http://www.w3.org/2000/svg">
<rect x="1" y="1" width="82" height="82" rx="11" fill="white" fill-opacity="0.25"/>
<rect x="1" y="1" width="82" height="82" rx="11" stroke="black" stroke-width="2"/>
<path d="M16.9337 51.0314L26.7737 58.6844C25.4972 61.4179 27.3206 73.6285 42.0811 73.9926C56.8424 74.3567 58.8471 61.2359 57.7527 58.3196L67.0477 51.0307L69.4749 23.1158C69.5434 22.3312 69.0123 21.4346 68.2913 21.119L43.3904 10.2356C42.6687 9.92004 41.4958 9.92148 40.7726 10.2399L15.6897 21.2982C14.9601 21.6194 14.4375 22.5132 14.506 23.3L16.9337 51.0314ZM18.3914 27.8871L38.436 40.6441L38.2539 61.6007L19.4841 48.1158L18.3914 27.8871ZM45.7267 40.8255L65.5899 28.6164L64.4955 47.9331L45.5436 61.6007L45.7267 40.8255ZM19.6532 23.1686L32.7988 17.4153L35.3937 19.2012L28.0777 27.3223L28.3928 27.4273L42.4413 21.8371L37.6412 27.8343L46.9384 24.236L42.439 30.2344L47.4436 33.4298L42.2818 36.3849L19.6532 23.1686ZM44.1802 23.1686L48.6796 17.6237L35.1826 22.7163L39.3812 18.217L35.7394 15.838L42.0797 12.9516L64.5062 23.1639L50.4864 31.5001L45.9788 29.0167L52.8747 19.7195L44.179 23.1651L44.1802 23.1686Z" fill="#039BE5"/>
</svg>
